<?xml version="1.0" encoding="iso-8859-1"?>
<!-- Uploaded to: SVG Repo, www.svgrepo.com, Generator: SVG Repo Mixer Tools -->
<svg fill="#000000" version="1.1" id="Layer_1" xmlns="http://www.w3.org/2000/svg" xmlns:xlink="http://www.w3.org/1999/xlink" 
	 viewBox="0 0 491.407 491.407" xml:space="preserve">
<g>
	<g>
		<path d="M471.981,378.047l-80.16-80.16c-7.98-7.99-20.98-7.99-28.96,0l-9.357,9.357l-27.466-27.469
			c47.772-69.598,40.883-165.693-20.912-227.493c-69.71-69.71-183.135-69.71-252.845,0c-69.705,69.71-69.705,183.135,0,252.845
			c34.855,34.855,80.64,52.28,126.425,52.28c35.396,0,70.728-10.537,101.071-31.368l27.464,27.467l-9.351,9.351
			c-3.875,3.865-6.005,9.01-6.005,14.485c0,5.47,2.13,10.61,6,14.48l80.16,80.16c12.95,12.95,29.96,19.425,46.97,19.425
			c17.005,0,34.015-6.475,46.965-19.425C497.881,446.082,497.881,403.948,471.981,378.047z M51.116,252.303v19.807
			C5.771,210.218,10.866,122.662,66.761,66.763c30.87-30.865,71.4-46.29,111.945-46.29c40.535,0,81.08,15.435,111.94,46.29
			c55.557,55.561,60.931,142.399,16.47,204.224v-18.909c0-34.445-24.295-65.785-59.115-76.23l-14.24-4.21l-55.055,55.06
			l-55.06-55.06l-14.275,4.22C75.071,186.147,51.116,217.582,51.116,252.303z M286.636,294.271
			c-60.388,56.421-154.34,56.661-215.04,0.745v-42.713c0-25.75,17.955-49.115,43.62-56.815l2.56-0.76l60.93,60.93l60.925-60.93
			l2.525,0.75c26.19,7.855,44.48,31.13,44.48,56.6V294.271z M296.037,313.34c3.067-2.676,6.169-5.292,9.089-8.212
			c2.92-2.921,5.537-6.023,8.213-9.091l25.685,25.688l-17.303,17.302L296.037,313.34z M457.501,457.503
			c-8.68,8.675-20.215,13.455-32.49,13.455c-12.27,0-23.805-4.78-32.485-13.455l-80.17-80.145l0.005-0.01
			c0.005,0,0.005-0.005,0.005-0.005l64.975-64.975l80.16,80.16c8.675,8.68,13.455,20.215,13.455,32.485
			C470.956,437.287,466.176,448.823,457.501,457.503z"/>
	</g>
</g>
<g>
	<g>
		
			<rect x="374.345" y="374.343" transform="matrix(0.7071 -0.7071 0.7071 0.7071 -159.2989 384.5846)" width="20.48" height="20.48"/>
	</g>
</g>
<g>
	<g>
		
			<rect x="403.214" y="403.271" transform="matrix(0.7071 -0.7071 0.7071 0.7071 -171.2988 413.4692)" width="20.48" height="20.48"/>
	</g>
</g>
<g>
	<g>
		<path d="M178.706,61.357c-31.23,0-56.635,25.405-56.635,56.635s25.405,56.635,56.635,56.635c31.23,0,56.635-25.405,56.635-56.635
			S209.936,61.357,178.706,61.357z M178.706,154.147c-19.935,0-36.155-16.22-36.155-36.155s16.22-36.155,36.155-36.155
			s36.155,16.22,36.155,36.155S198.641,154.147,178.706,154.147z"/>
	</g>
</g>
</svg>