<svg width="91" height="27" viewBox="0 0 91 27" fill="none" xmlns="http://www.w3.org/2000/svg">
<path d="M7.552 21.12C6.03734 21.12 4.704 20.7787 3.552 20.096C2.42133 19.4133 1.54667 18.4427 0.928001 17.184C0.309335 15.9253 1.43051e-06 14.432 1.43051e-06 12.704C1.43051e-06 11.0613 0.266668 9.48267 0.800001 7.968C1.33333 6.45333 2.10133 5.09867 3.104 3.904C4.10667 2.70933 5.312 1.76 6.72 1.056C8.128 0.352 9.71734 0 11.488 0C12.8107 0 13.8987 0.202667 14.752 0.608C15.6053 1.01333 16.032 1.61067 16.032 2.4C16.032 2.784 15.9253 3.168 15.712 3.552C15.52 3.91467 15.264 4.224 14.944 4.48C14.624 4.736 14.2933 4.864 13.952 4.864C13.7387 4.864 13.568 4.81067 13.44 4.704C12.864 4.32 12.2987 4.04267 11.744 3.872C11.1893 3.68 10.5493 3.584 9.824 3.584C8.30934 3.584 7.02934 3.936 5.984 4.64C4.93867 5.32267 4.13867 6.22933 3.584 7.36C3.05067 8.49067 2.784 9.71733 2.784 11.04C2.784 12.32 3.02933 13.4507 3.52 14.432C4.01067 15.4133 4.69333 16.1813 5.568 16.736C6.44267 17.2907 7.46667 17.568 8.64 17.568C9.57867 17.568 10.4853 17.3867 11.36 17.024C12.256 16.64 13.0453 16.1173 13.728 15.456C14.0267 15.1787 14.3253 15.04 14.624 15.04C14.88 15.04 15.0613 15.1467 15.168 15.36C15.2747 15.5733 15.328 15.7867 15.328 16C15.328 16.3627 15.2213 16.7787 15.008 17.248C14.7947 17.696 14.464 18.144 14.016 18.592C13.2267 19.3813 12.256 20 11.104 20.448C9.952 20.896 8.768 21.12 7.552 21.12ZM24.3963 21.216C23.6709 21.216 23.1056 20.9813 22.7003 20.512C22.3163 20.0213 22.0923 19.1787 22.0283 17.984C21.9856 16.7253 21.8789 15.4773 21.7083 14.24C21.5589 12.9813 21.3456 11.808 21.0683 10.72C20.7056 9.14133 20.2149 7.69067 19.5963 6.368C18.9989 5.024 18.1669 3.92533 17.1003 3.072C16.9296 2.92267 16.7909 2.784 16.6843 2.656C16.5776 2.50667 16.5243 2.32533 16.5243 2.112C16.5243 1.64267 16.7589 1.19467 17.2283 0.768C17.7189 0.341333 18.2843 0.128 18.9243 0.128C19.6709 0.128 20.3109 0.437333 20.8443 1.056C21.3776 1.67467 21.8576 2.53867 22.2843 3.648C23.0096 5.39733 23.5323 7.36 23.8523 9.536C24.1936 11.6907 24.3856 13.7707 24.4283 15.776C24.4496 16.3733 24.5349 16.7787 24.6843 16.992C24.8336 17.184 25.0896 17.28 25.4523 17.28C26.2203 17.28 26.9669 16.9813 27.6923 16.384C28.4389 15.7867 29.1109 14.976 29.7083 13.952C30.3269 12.928 30.8176 11.7653 31.1803 10.464C31.5429 9.16267 31.7243 7.79733 31.7243 6.368C31.7243 5.49333 31.6603 4.78933 31.5323 4.256C31.4256 3.70133 31.2976 3.264 31.1483 2.944C30.9563 2.51733 30.8603 2.176 30.8603 1.92C30.8603 1.6 31.0096 1.30133 31.3083 1.024C31.6069 0.746667 31.9483 0.522666 32.3323 0.351999C32.7376 0.159999 33.1003 0.0639992 33.4203 0.0639992C33.8469 0.0639992 34.1563 0.223999 34.3483 0.543999C34.5403 0.842665 34.6683 1.22667 34.7323 1.696C34.7963 2.16533 34.8283 2.64533 34.8283 3.136C34.8283 4.608 34.6576 6.16533 34.3163 7.808C33.9749 9.45067 33.4843 11.072 32.8443 12.672C32.2256 14.2507 31.4789 15.6907 30.6043 16.992C29.7509 18.272 28.8016 19.296 27.7563 20.064C26.7109 20.832 25.5909 21.216 24.3963 21.216ZM38.185 10.329C38.185 9.25608 38.4454 8.28213 38.9663 7.40713C39.4975 6.53213 40.2058 5.83421 41.0913 5.31338C41.9767 4.78213 42.9558 4.5165 44.0288 4.5165H49.7631C50.6694 4.5165 51.4454 4.83942 52.0913 5.48525C52.7371 6.13108 53.06 6.90713 53.06 7.81338V20.8915C53.06 21.9644 52.7944 22.9436 52.2631 23.829C51.7423 24.7144 51.0392 25.4175 50.1538 25.9384C49.2683 26.4696 48.2892 26.7353 47.2163 26.7353H39.2319V23.4384H47.1694C47.8881 23.4384 48.4975 23.1884 48.9975 22.6884C49.5079 22.1988 49.7631 21.605 49.7631 20.9071V7.81338H44.0288C43.3308 7.81338 42.7319 8.06338 42.2319 8.56338C41.7319 9.05296 41.4819 9.65192 41.4819 10.3603V14.8446C41.4819 15.5425 41.7319 16.1467 42.2319 16.6571C42.7319 17.1571 43.3308 17.4071 44.0288 17.4071H47.8881V20.704H44.0288C42.9558 20.704 41.9767 20.4436 41.0913 19.9228C40.2058 19.3915 39.4975 18.6884 38.9663 17.8134C38.4454 16.928 38.185 15.9488 38.185 14.8759V10.329ZM56.81 7.86025C56.81 6.93317 57.1485 6.14671 57.8256 5.50088C58.5027 4.84463 59.3152 4.5165 60.2631 4.5165H67.0131C67.8777 4.5165 68.659 4.73004 69.3569 5.15713C70.0652 5.57379 70.6277 6.1415 71.0444 6.86025C71.4715 7.56858 71.685 8.35504 71.685 9.21963V9.67275C71.685 10.5269 71.4715 11.3082 71.0444 12.0165C70.6277 12.7144 70.0652 13.2769 69.3569 13.704C68.659 14.1207 67.8777 14.329 67.0131 14.329H61.9819V11.0478H67.0444C67.4194 11.0478 67.7371 10.9123 67.9975 10.6415C68.2683 10.3707 68.4038 10.0425 68.4038 9.65713V9.21963C68.4038 8.82379 68.2683 8.49046 67.9975 8.21963C67.7371 7.94879 67.4194 7.81338 67.0444 7.81338H60.1069V16.1259C60.1069 16.48 60.2267 16.7821 60.4663 17.0321C60.7058 17.2821 60.9975 17.4071 61.3413 17.4071H70.5444V20.704H61.3413C60.5079 20.704 59.7475 20.5009 59.06 20.0946C58.3725 19.678 57.8256 19.1259 57.4194 18.4384C57.0131 17.7405 56.81 16.9748 56.81 16.1415V7.86025ZM75.2788 7.79775C75.2788 6.8915 75.6017 6.12067 76.2475 5.48525C76.9038 4.83942 77.6902 4.5165 78.6069 4.5165H84.31C85.3829 4.5165 86.3621 4.78213 87.2475 5.31338C88.1329 5.83421 88.836 6.53733 89.3569 7.42275C89.8881 8.30817 90.1538 9.28733 90.1538 10.3603V20.704H86.8569V10.4071C86.8569 9.67796 86.6069 9.05817 86.1069 8.54775C85.6173 8.03733 85.0183 7.78213 84.31 7.78213H78.5756V20.704H75.2788V7.79775Z" fill="white"/>
</svg>
